<svg width="15" height="15" viewBox="0 0 15 15" fill="none" xmlns="http://www.w3.org/2000/svg">
<path fill-rule="evenodd" clip-rule="evenodd" d="M7.5 0.625C3.70312 0.625 0.625 3.70312 0.625 7.5C0.625 11.2969 3.70312 14.375 7.5 14.375C11.2969 14.375 14.375 11.2969 14.375 7.5C14.375 3.70312 11.2969 0.625 7.5 0.625ZM5 6.875C4.83424 6.875 4.67527 6.94085 4.55806 7.05806C4.44085 7.17527 4.375 7.33424 4.375 7.5C4.375 7.66576 4.44085 7.82473 4.55806 7.94194C4.67527 8.05915 4.83424 8.125 5 8.125H10C10.1658 8.125 10.3247 8.05915 10.4419 7.94194C10.5592 7.82473 10.625 7.66576 10.625 7.5C10.625 7.33424 10.5592 7.17527 10.4419 7.05806C10.3247 6.94085 10.1658 6.875 10 6.875H5Z" fill="#FF7F0A"/>
</svg>
