<svg width="15" height="15" viewBox="0 0 15 15" fill="none" xmlns="http://www.w3.org/2000/svg">
<path d="M9.35241 1.2675C9.10309 1.03894 8.77516 0.915443 8.437 0.922779C8.09885 0.930115 7.77658 1.06771 7.53741 1.30688L1.33491 7.51031C1.21302 7.63219 1.11633 7.77689 1.05036 7.93614C0.984393 8.09539 0.950439 8.26607 0.950439 8.43844C0.950439 8.61081 0.984393 8.78149 1.05036 8.94074C1.11633 9.09999 1.21302 9.24469 1.33491 9.36656L2.20303 10.2338C2.52835 10.56 2.99616 10.4813 3.27178 10.2975C3.47012 10.1657 3.70798 10.1066 3.94496 10.1302C4.18193 10.1538 4.40343 10.2587 4.57183 10.4271C4.74023 10.5955 4.84515 10.817 4.86879 11.054C4.89242 11.291 4.8333 11.5288 4.70147 11.7272C4.51866 12.0028 4.43991 12.4716 4.76522 12.7969L5.61366 13.6444C5.73788 13.7687 5.88582 13.8669 6.04869 13.933C6.21156 13.999 6.38605 14.0318 6.5618 14.0291C6.73755 14.0265 6.91098 13.9886 7.07181 13.9177C7.23263 13.8468 7.37758 13.7443 7.49803 13.6163L13.6837 7.0425C13.8027 6.91597 13.8955 6.76705 13.9566 6.60439C14.0177 6.44173 14.0458 6.26856 14.0395 6.09492C14.0331 5.92129 13.9923 5.75064 13.9195 5.59289C13.8467 5.43513 13.7432 5.29341 13.6152 5.17594L12.7846 4.41375C12.6931 4.33217 12.5839 4.273 12.4656 4.24095C12.3473 4.20889 12.2232 4.20482 12.103 4.22906C11.8902 4.26656 11.6887 4.37906 11.5424 4.53844C11.4509 4.63828 11.3406 4.71912 11.2178 4.77634C11.095 4.83356 10.9622 4.86603 10.8268 4.87191C10.6915 4.87778 10.5564 4.85695 10.4291 4.81059C10.3018 4.76423 10.1849 4.69326 10.0851 4.60172C9.88342 4.41686 9.76347 4.15946 9.7516 3.88615C9.74572 3.75083 9.76656 3.61567 9.81292 3.48839C9.85928 3.36112 9.93025 3.24422 10.0218 3.14438C10.169 2.98688 10.2637 2.77594 10.2833 2.56031C10.2969 2.43864 10.2819 2.31548 10.2396 2.2006C10.1973 2.08572 10.1288 1.98226 10.0396 1.89844L9.35241 1.2675Z" fill="#FF7F0A"/>
</svg>
